<svg id="Capa_1" enable-background="new 0 0 512 512" height="512" viewBox="0 0 512 512" width="512" xmlns="http://www.w3.org/2000/svg"><g><path d="m465.242 196c-7.72-108.95-98.328-196-209.242-196s-201.522 87.05-209.242 196h105.758c7.357-50.75 50.729-90 103.484-90s96.127 39.25 103.484 90zm-284.242-90h-30v-30h30z"/><circle cx="256" cy="211" r="15"/><path d="m256 421c110.914 0 201.522-86.052 209.242-195h-105.758c-7.357 50.75-50.729 90-103.484 90s-96.127-39.25-103.484-90h-105.758c7.72 108.948 98.328 195 209.242 195z"/><path d="m256 136c-41.353 0-75 33.647-75 75s33.647 75 75 75 75-33.647 75-75-33.647-75-75-75zm0 120c-24.814 0-45-20.186-45-45s20.186-45 45-45 45 20.186 45 45-20.186 45-45 45z"/><path d="m391 482h-35.726l-21.575-44.16c-24.408 8.388-50.48 13.16-77.699 13.16s-53.291-4.772-77.699-13.16l-21.575 44.16h-35.726v30h270z"/></g></svg>